<svg id="svg" xmlns="http://www.w3.org/2000/svg" xmlns:xlink="http://www.w3.org/1999/xlink" width="400"
     height="400" viewBox="92, 248, 250, 100">
  <g id="svgg">
    <path id="path1"
          d="M241.800 173.872 C 227.473 177.086,223.441 183.942,225.793 201.093 C 227.082 210.494,227.115 210.580,229.277 210.234 C 230.185 210.089,237.784 208.987,246.164 207.786 C 265.173 205.060,263.997 205.267,263.796 204.685 C 263.704 204.418,263.261 201.415,262.811 198.011 C 261.388 187.250,259.690 182.567,255.745 178.526 C 252.354 175.053,245.996 172.931,241.800 173.872 M239.520 182.880 C 240.392 183.752,240.023 184.375,238.040 185.379 C 235.670 186.581,233.687 188.876,233.366 190.790 C 232.919 193.459,232.798 193.654,231.666 193.523 C 230.313 193.367,230.084 191.958,230.975 189.274 C 232.340 185.167,237.755 181.115,239.520 182.880 M265.400 256.330 C 260.637 259.613,249.232 279.567,244.220 293.385 C 243.685 294.858,242.536 296.994,241.665 298.132 C 240.794 299.269,240.017 300.553,239.938 300.984 C 239.608 302.795,232.649 307.860,231.147 307.383 C 229.412 306.833,231.714 297.912,234.600 294.000 C 236.027 292.066,235.883 291.421,233.804 290.444 C 230.072 288.690,228.368 289.795,226.777 295.000 C 225.874 297.956,225.541 298.712,224.790 299.519 C 223.610 300.786,218.416 307.564,216.000 310.991 C 208.401 321.769,206.400 322.823,206.400 316.046 C 206.400 314.502,206.564 312.376,206.765 311.320 C 206.965 310.264,207.332 308.050,207.581 306.400 C 208.325 301.452,209.523 297.880,210.801 296.800 C 211.223 296.443,214.867 291.581,216.353 289.391 C 217.149 288.219,218.610 286.335,219.600 285.205 C 230.545 272.712,233.125 259.200,224.566 259.200 C 218.651 259.200,213.865 264.836,208.772 277.800 C 208.254 279.120,207.522 280.830,207.146 281.600 C 206.770 282.370,205.684 285.383,204.731 288.295 C 202.813 294.162,202.708 294.256,200.531 292.048 C 195.935 287.390,192.713 287.865,188.121 293.878 C 186.977 295.375,184.494 298.580,182.602 301.000 C 180.711 303.420,178.746 306.030,178.236 306.800 C 175.677 310.664,168.203 316.470,166.586 315.850 C 165.423 315.404,165.093 313.599,165.589 310.400 C 166.920 301.823,166.722 302.294,169.422 301.261 C 175.318 299.004,181.600 292.044,181.600 287.767 C 181.600 282.960,173.718 281.226,169.250 285.050 C 164.494 289.121,157.586 303.600,160.400 303.600 C 160.620 303.600,160.800 303.330,160.800 303.000 C 160.800 302.670,160.980 302.400,161.200 302.400 C 161.896 302.400,161.311 306.607,160.353 308.495 C 160.159 308.877,160.000 309.541,160.000 309.971 C 160.000 310.917,159.360 311.401,159.034 310.702 C 158.904 310.426,158.904 310.912,159.033 311.781 C 159.360 313.993,160.489 316.026,162.043 317.200 C 167.512 321.333,170.764 319.885,178.702 309.784 C 183.101 304.185,183.840 303.589,182.846 306.439 C 181.709 309.702,182.526 314.865,184.465 316.670 C 187.240 319.254,190.608 318.051,196.822 312.257 C 199.734 309.542,199.717 309.526,199.761 315.000 C 199.866 327.966,206.494 328.249,215.210 315.660 C 220.486 308.041,221.032 307.280,222.527 305.459 C 224.392 303.188,224.390 303.188,225.489 305.516 C 228.920 312.788,234.813 313.315,238.722 306.700 C 240.023 304.500,240.348 305.460,239.366 308.600 C 234.105 325.418,235.385 336.000,242.679 336.000 C 247.844 336.000,252.453 327.797,254.433 315.079 C 254.924 311.925,255.370 311.200,256.820 311.200 C 257.475 311.200,258.323 311.038,258.705 310.840 C 259.087 310.643,260.278 310.058,261.352 309.540 C 262.426 309.023,264.456 307.475,265.864 306.100 C 267.272 304.725,268.508 303.600,268.612 303.600 C 268.966 303.600,268.801 305.552,268.427 305.783 C 267.634 306.273,267.088 310.450,267.596 312.145 C 268.485 315.111,271.310 316.781,273.505 315.638 C 273.887 315.440,275.550 314.649,277.200 313.882 C 280.214 312.481,286.096 307.281,290.142 302.440 C 291.820 300.433,292.337 300.521,291.668 302.698 C 291.414 303.524,290.838 305.460,290.387 307.000 C 287.774 315.923,288.623 314.585,280.361 322.800 C 264.047 339.020,261.107 345.886,268.327 350.899 C 270.801 352.618,274.969 352.793,277.107 351.268 C 278.174 350.507,281.600 346.092,281.600 345.477 C 281.600 345.386,282.287 344.061,283.127 342.533 C 285.645 337.952,288.385 330.645,291.576 320.000 C 292.268 317.690,293.082 315.240,293.385 314.556 C 293.887 313.419,301.190 306.996,308.350 301.395 C 313.727 297.188,314.661 295.982,313.027 295.355 C 312.436 295.128,311.402 295.886,302.309 303.200 C 294.551 309.441,295.200 308.986,295.200 308.180 C 295.200 307.425,297.933 301.651,300.175 297.668 C 301.847 294.698,301.916 294.037,300.681 292.876 C 298.518 290.844,295.559 291.244,294.392 293.727 C 293.950 294.667,292.736 296.332,291.694 297.425 C 290.652 298.519,288.691 300.772,287.335 302.433 C 285.979 304.093,284.179 305.966,283.335 306.593 C 282.491 307.221,280.610 308.694,279.155 309.867 C 274.516 313.609,272.638 312.424,274.169 306.720 C 275.344 302.337,278.725 293.791,279.980 292.028 C 281.257 290.235,281.255 288.002,279.977 287.269 C 277.494 285.845,274.693 287.976,272.440 293.000 C 271.254 295.648,270.585 296.713,268.482 299.314 C 264.832 303.826,259.340 308.000,257.053 308.000 C 256.039 308.000,255.301 306.371,255.271 304.063 C 255.223 300.358,253.298 298.781,252.027 301.405 C 251.222 303.068,251.274 306.181,252.152 308.876 C 254.371 315.682,244.559 336.002,240.728 332.534 C 239.681 331.588,240.123 321.666,241.242 320.974 C 241.439 320.852,241.600 320.371,241.600 319.905 C 241.600 319.438,241.778 318.504,241.996 317.828 C 242.213 317.153,242.916 314.980,243.558 313.000 C 244.199 311.020,245.132 308.075,245.632 306.456 C 246.385 304.013,246.954 303.056,248.970 300.845 C 263.628 284.765,272.721 269.599,272.786 261.126 C 272.826 255.859,269.354 253.604,265.400 256.330 M105.800 256.939 C 101.482 258.817,98.825 261.125,97.216 264.397 C 96.621 265.609,95.776 267.230,95.339 268.000 C 93.886 270.561,93.450 272.906,93.999 275.197 C 94.808 278.569,97.600 279.476,97.600 276.366 C 97.600 272.186,104.048 262.007,107.834 260.211 C 111.426 258.506,112.463 261.261,110.397 267.018 C 109.998 268.128,109.461 270.198,109.203 271.618 C 108.945 273.038,108.587 274.560,108.407 275.000 C 107.320 277.669,106.717 278.800,106.381 278.800 C 106.172 278.800,106.000 279.261,106.000 279.824 C 106.000 280.404,105.827 280.740,105.600 280.600 C 105.372 280.459,105.200 280.804,105.200 281.400 C 105.200 281.996,105.028 282.341,104.800 282.200 C 104.448 281.983,104.231 282.532,104.500 282.958 C 104.555 283.045,104.313 283.450,103.962 283.858 C 103.611 284.266,102.187 287.480,100.799 291.000 C 99.410 294.520,98.151 297.580,98.000 297.800 C 97.651 298.311,93.853 308.146,93.289 310.000 C 91.615 315.505,92.672 319.600,95.767 319.600 C 97.646 319.600,98.327 318.641,100.022 313.600 C 102.185 307.169,104.676 302.797,115.060 287.200 C 121.211 277.961,123.894 274.529,127.976 270.678 C 132.928 266.007,135.514 265.862,133.182 270.387 C 133.009 270.724,131.864 273.070,130.639 275.600 C 129.414 278.130,127.873 281.100,127.215 282.200 C 118.633 296.543,115.172 309.316,118.810 313.210 C 120.574 315.099,121.521 314.746,123.129 311.600 C 123.861 310.170,125.076 308.058,125.829 306.906 C 126.583 305.755,127.200 304.734,127.200 304.638 C 127.200 304.117,132.056 296.591,133.968 294.150 C 135.196 292.582,137.526 289.488,139.146 287.275 C 149.443 273.210,154.915 272.905,147.663 286.800 C 146.343 289.330,144.332 293.740,143.196 296.600 C 142.059 299.460,140.720 302.700,140.221 303.800 C 139.091 306.291,138.578 307.938,137.978 311.000 C 137.720 312.320,137.313 314.030,137.074 314.800 C 134.424 323.354,139.549 334.400,146.169 334.400 C 149.441 334.400,155.200 330.499,155.200 328.282 C 155.200 327.465,154.981 327.496,151.285 328.834 C 144.565 331.268,140.659 328.557,142.126 322.477 C 143.079 318.529,145.575 311.092,146.135 310.532 C 146.281 310.386,146.400 310.031,146.400 309.743 C 146.400 309.456,146.909 308.091,147.532 306.710 C 148.154 305.330,149.249 302.670,149.965 300.800 C 150.681 298.930,152.495 294.790,153.996 291.600 C 157.206 284.778,157.965 281.623,157.193 278.313 C 154.788 268.001,144.186 272.785,133.924 288.813 C 133.153 290.016,131.325 292.840,129.861 295.088 C 128.398 297.337,127.200 299.362,127.200 299.588 C 127.200 299.815,127.020 300.000,126.800 300.000 C 126.580 300.000,126.400 300.270,126.400 300.600 C 126.400 300.930,126.201 301.200,125.957 301.200 C 125.697 301.200,125.628 300.911,125.790 300.500 C 125.941 300.115,126.332 299.021,126.659 298.070 C 127.210 296.461,128.501 293.354,130.839 288.001 C 132.036 285.262,135.424 278.588,137.236 275.400 C 140.904 268.947,137.192 260.878,131.739 263.452 C 128.482 264.989,120.662 273.878,113.975 283.643 C 110.184 289.179,109.470 289.164,111.400 283.591 C 117.629 265.608,117.769 264.749,115.346 259.309 C 113.904 256.071,110.017 255.106,105.800 256.939 M268.967 259.843 C 271.253 260.720,266.547 273.038,260.459 282.112 C 256.254 288.379,251.051 294.785,250.563 294.296 C 250.327 294.061,252.510 288.020,253.199 287.000 C 253.348 286.780,253.891 285.520,254.408 284.200 C 257.020 277.518,265.162 262.490,267.356 260.300 C 268.152 259.506,268.115 259.516,268.967 259.843 M225.920 263.280 C 228.147 265.507,224.866 273.941,217.919 283.851 C 216.973 285.200,215.070 287.945,213.690 289.951 C 209.656 295.815,209.599 295.399,213.010 284.996 C 217.672 270.782,223.544 260.904,225.920 263.280 M235.406 272.135 C 235.008 272.742,234.881 273.503,235.042 274.310 C 235.352 275.859,233.515 280.764,232.143 282.053 C 231.014 283.114,230.954 284.257,231.958 285.563 L 232.699 286.526 233.864 285.697 C 234.504 285.241,235.281 284.396,235.589 283.820 C 235.898 283.244,236.369 282.856,236.636 282.958 C 237.334 283.226,237.664 282.759,237.185 282.182 C 236.771 281.683,238.951 277.600,239.633 277.600 C 240.641 277.600,241.673 275.142,241.173 273.934 C 240.146 271.456,236.580 270.344,235.406 272.135 M177.120 285.680 C 178.748 287.308,177.445 291.099,174.079 294.530 C 168.353 300.365,167.504 299.529,171.263 291.753 C 173.683 286.746,175.894 284.454,177.120 285.680 M199.966 294.656 C 201.834 296.778,201.997 297.950,201.043 302.400 C 200.207 306.299,199.913 306.812,197.147 309.194 C 195.746 310.401,194.359 311.619,194.065 311.900 C 187.305 318.371,186.673 311.538,192.857 298.844 C 196.068 292.253,197.242 291.562,199.966 294.656 M144.000 298.405 C 144.000 298.848,143.820 299.568,143.600 300.005 C 143.380 300.442,143.020 301.158,142.800 301.595 C 142.580 302.032,142.400 302.662,142.400 302.995 C 142.400 303.328,142.220 303.600,142.000 303.600 C 141.780 303.600,141.600 303.418,141.600 303.195 C 141.600 302.972,141.780 302.432,142.000 301.995 C 142.220 301.558,142.580 300.842,142.800 300.405 C 143.020 299.968,143.200 299.158,143.200 298.605 C 143.200 298.052,143.380 297.600,143.600 297.600 C 143.820 297.600,144.000 297.962,144.000 298.405 M141.600 304.600 C 141.600 304.930,141.420 305.200,141.200 305.200 C 140.980 305.200,140.800 304.930,140.800 304.600 C 140.800 304.270,140.980 304.000,141.200 304.000 C 141.420 304.000,141.600 304.270,141.600 304.600 M285.243 322.724 C 285.045 323.096,284.430 324.752,283.877 326.404 C 277.682 344.893,270.390 354.358,269.332 345.285 C 268.898 341.567,271.154 337.230,277.477 329.631 C 281.950 324.254,286.654 320.071,285.243 322.724 M239.891 323.900 C 239.732 324.567,239.709 324.567,239.419 323.900 C 239.252 323.515,239.252 322.885,239.419 322.500 C 239.803 321.619,240.174 322.719,239.891 323.900 "
          stroke="none" fill="#ffffff" fill-rule="evenodd"></path>
    <path id="path4"
          d="M240.600 173.433 C 229.362 176.153,224.688 181.821,224.627 192.800 C 224.602 197.403,224.823 199.559,226.184 208.000 L 226.668 211.000 228.834 210.892 C 230.025 210.833,232.080 210.615,233.400 210.407 C 234.720 210.200,237.105 209.843,238.700 209.615 C 241.467 209.219,244.023 208.847,249.800 208.000 C 251.232 207.790,253.618 207.443,255.102 207.228 C 256.586 207.013,259.240 206.591,261.000 206.289 L 264.200 205.741 264.129 203.970 C 263.339 184.289,256.829 173.854,245.050 173.385 C 243.043 173.305,241.040 173.326,240.600 173.433 M246.713 174.014 C 256.363 175.580,260.700 182.045,262.811 198.011 C 263.261 201.415,263.704 204.418,263.796 204.685 C 263.997 205.267,265.173 205.060,246.164 207.786 C 237.784 208.987,230.185 210.089,229.277 210.234 C 227.115 210.580,227.082 210.494,225.793 201.093 C 223.639 185.382,227.532 177.368,238.648 174.631 C 243.386 173.464,243.345 173.467,246.713 174.014 M135.314 181.800 C 135.317 182.900,135.395 183.303,135.487 182.695 C 135.579 182.086,135.577 181.186,135.482 180.695 C 135.387 180.203,135.311 180.700,135.314 181.800 M235.939 183.406 C 231.602 185.665,228.440 193.150,231.666 193.523 C 232.798 193.654,232.919 193.459,233.366 190.790 C 233.687 188.876,235.670 186.581,238.040 185.379 C 240.023 184.375,240.392 183.752,239.520 182.880 C 238.832 182.192,238.050 182.307,235.939 183.406 M239.200 183.769 C 239.200 184.082,238.584 184.541,237.832 184.789 C 235.936 185.415,233.352 188.333,232.805 190.464 C 232.157 192.994,232.067 193.200,231.613 193.200 C 230.722 193.200,231.201 189.812,232.382 187.752 C 234.136 184.695,239.200 181.736,239.200 183.769 M155.575 193.423 C 156.302 193.562,156.818 193.946,156.928 194.430 C 157.067 195.040,157.095 195.013,157.053 194.306 C 157.011 193.584,156.736 193.380,155.700 193.300 C 154.464 193.205,154.458 193.211,155.575 193.423 M154.100 195.476 C 154.485 195.576,155.115 195.576,155.500 195.476 C 155.885 195.375,155.570 195.293,154.800 195.293 C 154.030 195.293,153.715 195.375,154.100 195.476 M152.905 201.487 C 153.514 201.579,154.414 201.577,154.905 201.482 C 155.397 201.387,154.900 201.311,153.800 201.314 C 152.700 201.317,152.297 201.395,152.905 201.487 M266.400 255.094 C 262.003 256.784,250.905 274.936,244.815 290.400 C 241.270 299.401,234.244 308.036,231.364 306.931 C 229.977 306.399,232.670 297.326,235.149 294.174 C 236.666 292.245,236.133 290.809,233.481 289.677 C 229.873 288.138,227.857 289.732,226.043 295.560 C 225.525 297.226,224.579 298.878,223.097 300.707 C 221.896 302.188,219.142 305.830,216.975 308.800 C 207.551 321.718,206.324 322.455,206.983 314.800 C 207.900 304.144,209.031 300.124,212.345 295.743 C 213.818 293.794,216.046 290.743,217.295 288.963 C 218.544 287.182,219.875 285.472,220.251 285.163 C 222.862 283.018,229.743 270.735,230.437 266.982 C 232.061 258.200,222.633 255.693,215.975 263.136 C 213.000 266.461,206.690 280.019,203.797 289.300 C 202.587 293.182,202.540 293.226,201.179 291.778 C 194.946 285.143,191.938 287.017,178.160 306.114 C 173.260 312.906,166.786 317.009,165.948 313.852 C 165.704 312.932,166.671 305.712,167.406 302.969 C 167.470 302.732,168.394 302.212,169.461 301.813 C 178.054 298.598,184.605 288.650,180.797 284.597 C 173.706 277.049,161.841 287.791,159.145 304.200 C 157.838 312.152,158.298 314.433,161.834 317.547 C 166.747 321.871,171.397 320.277,177.434 312.200 C 178.585 310.660,180.095 308.770,180.789 308.000 L 182.052 306.600 181.841 308.728 C 181.368 313.521,182.954 316.982,186.194 318.219 L 188.001 318.909 190.501 317.665 C 191.875 316.981,194.260 315.254,195.800 313.829 C 199.334 310.558,199.200 310.515,199.202 314.900 C 199.206 320.644,200.383 323.500,203.344 324.952 C 206.869 326.679,209.602 324.385,217.893 312.742 C 224.110 304.012,224.100 304.023,224.770 305.495 C 226.805 309.960,231.571 313.262,234.108 311.963 C 235.258 311.375,238.400 308.354,238.400 307.837 C 238.400 307.620,237.579 308.286,236.575 309.319 C 232.867 313.134,228.352 311.585,225.489 305.516 C 224.390 303.188,224.392 303.188,222.527 305.459 C 221.032 307.280,220.486 308.041,215.210 315.660 C 206.494 328.249,199.866 327.966,199.761 315.000 C 199.717 309.526,199.734 309.542,196.822 312.257 C 190.608 318.051,187.240 319.254,184.465 316.670 C 182.526 314.865,181.709 309.702,182.846 306.439 C 183.840 303.589,183.101 304.185,178.702 309.784 C 171.878 318.467,167.908 320.901,164.183 318.686 C 160.975 316.777,159.474 314.766,159.033 311.781 C 158.904 310.912,158.904 310.426,159.034 310.702 C 159.360 311.401,160.000 310.917,160.000 309.971 C 160.000 309.541,160.159 308.877,160.353 308.495 C 161.311 306.607,161.896 302.400,161.200 302.400 C 160.980 302.400,160.800 302.670,160.800 303.000 C 160.800 303.330,160.620 303.600,160.400 303.600 C 157.586 303.600,164.494 289.121,169.250 285.050 C 173.718 281.226,181.600 282.960,181.600 287.767 C 181.600 292.044,175.318 299.004,169.422 301.261 C 166.722 302.294,166.920 301.823,165.589 310.400 C 165.093 313.599,165.423 315.404,166.586 315.850 C 168.203 316.470,175.677 310.664,178.236 306.800 C 178.746 306.030,180.711 303.420,182.602 301.000 C 184.494 298.580,186.977 295.375,188.121 293.878 C 192.713 287.865,195.935 287.390,200.531 292.048 C 202.708 294.256,202.813 294.162,204.731 288.295 C 205.684 285.383,206.770 282.370,207.146 281.600 C 207.522 280.830,208.254 279.120,208.772 277.800 C 213.865 264.836,218.651 259.200,224.566 259.200 C 233.125 259.200,230.545 272.712,219.600 285.205 C 218.610 286.335,217.149 288.219,216.353 289.391 C 214.867 291.581,211.223 296.443,210.801 296.800 C 209.523 297.880,208.325 301.452,207.581 306.400 C 207.332 308.050,206.965 310.264,206.765 311.320 C 206.564 312.376,206.400 314.502,206.400 316.046 C 206.400 322.823,208.401 321.769,216.000 310.991 C 218.416 307.564,223.610 300.786,224.790 299.519 C 225.541 298.712,225.874 297.956,226.777 295.000 C 228.368 289.795,230.072 288.690,233.804 290.444 C 235.883 291.421,236.027 292.066,234.600 294.000 C 231.714 297.912,229.412 306.833,231.147 307.383 C 232.649 307.860,239.608 302.795,239.938 300.984 C 240.017 300.553,240.794 299.269,241.665 298.132 C 242.536 296.994,243.685 294.858,244.220 293.385 C 249.232 279.567,260.637 259.613,265.400 256.330 C 269.354 253.604,272.826 255.859,272.786 261.126 C 272.721 269.599,263.628 284.765,248.970 300.845 C 246.954 303.056,246.385 304.013,245.632 306.456 C 245.132 308.075,244.199 311.020,243.558 313.000 C 242.916 314.980,242.213 317.153,241.996 317.828 C 241.778 318.504,241.600 319.438,241.600 319.905 C 241.600 320.371,241.420 320.864,241.200 321.000 C 240.980 321.136,240.800 320.956,240.800 320.600 C 240.800 320.244,240.611 320.069,240.381 320.212 C 240.093 320.390,240.107 320.647,240.425 321.030 C 240.718 321.384,240.786 322.142,240.608 323.094 C 238.402 334.910,242.576 336.741,247.754 326.230 C 251.698 318.222,253.229 312.180,252.152 308.876 C 251.274 306.181,251.222 303.068,252.027 301.405 C 253.298 298.781,255.223 300.358,255.271 304.063 C 255.301 306.371,256.039 308.000,257.053 308.000 C 259.340 308.000,264.832 303.826,268.482 299.314 C 270.585 296.713,271.254 295.648,272.440 293.000 C 274.693 287.976,277.494 285.845,279.977 287.269 C 281.255 288.002,281.257 290.235,279.980 292.028 C 278.725 293.791,275.344 302.337,274.169 306.720 C 272.638 312.424,274.516 313.609,279.155 309.867 C 280.610 308.694,282.491 307.221,283.335 306.593 C 284.179 305.966,285.979 304.093,287.335 302.433 C 288.691 300.772,290.652 298.519,291.694 297.425 C 292.736 296.332,293.950 294.667,294.392 293.727 C 295.559 291.244,298.518 290.844,300.681 292.876 C 301.916 294.037,301.847 294.698,300.175 297.668 C 297.933 301.651,295.200 307.425,295.200 308.180 C 295.200 308.986,294.551 309.441,302.309 303.200 C 311.402 295.886,312.436 295.128,313.027 295.355 C 314.661 295.982,313.727 297.188,308.350 301.395 C 301.190 306.996,293.887 313.419,293.385 314.556 C 293.082 315.240,292.268 317.690,291.576 320.000 C 288.385 330.645,285.645 337.952,283.127 342.533 C 282.287 344.061,281.600 345.386,281.600 345.477 C 281.600 346.092,278.174 350.507,277.107 351.268 C 274.969 352.793,270.801 352.618,268.327 350.899 C 261.107 345.886,264.047 339.020,280.361 322.800 C 288.623 314.585,287.774 315.923,290.387 307.000 C 290.838 305.460,291.414 303.524,291.668 302.698 C 292.337 300.521,291.820 300.433,290.142 302.440 C 286.096 307.281,280.214 312.481,277.200 313.882 C 275.550 314.649,273.887 315.440,273.505 315.638 C 271.310 316.781,268.485 315.111,267.596 312.145 C 267.088 310.450,267.634 306.273,268.427 305.783 C 268.801 305.552,268.966 303.600,268.612 303.600 C 268.508 303.600,267.272 304.725,265.864 306.100 C 264.456 307.475,262.426 309.023,261.352 309.540 C 260.278 310.058,259.087 310.643,258.705 310.840 C 258.323 311.038,257.475 311.200,256.820 311.200 C 255.370 311.200,254.924 311.925,254.433 315.079 C 252.453 327.797,247.844 336.000,242.679 336.000 C 235.293 336.000,234.145 326.199,239.434 308.291 C 239.809 307.022,239.998 305.865,239.854 305.721 C 239.448 305.314,238.409 306.922,238.621 307.629 C 238.724 307.975,238.268 310.315,237.606 312.829 C 233.286 329.244,236.967 340.082,245.465 335.969 C 249.484 334.023,255.200 320.869,255.200 313.567 C 255.200 312.293,255.191 312.299,259.200 311.007 C 261.576 310.241,263.703 308.904,266.150 306.636 C 267.915 305.001,268.204 304.872,267.610 305.982 C 266.654 307.768,266.643 311.423,267.588 313.375 C 269.107 316.513,271.037 317.032,275.167 315.413 C 279.240 313.817,280.737 312.720,285.794 307.628 C 291.491 301.890,291.367 301.934,290.111 306.100 C 287.110 316.058,288.318 314.114,279.991 322.400 C 263.188 339.122,260.213 346.589,268.398 351.500 C 276.946 356.629,283.879 347.638,291.762 321.200 C 292.582 318.450,293.496 315.640,293.793 314.956 C 294.347 313.682,300.283 308.452,308.928 301.623 C 313.480 298.027,314.412 296.850,313.856 295.401 C 313.293 293.936,309.978 296.103,299.293 304.920 C 295.448 308.093,295.430 307.868,298.972 301.041 C 302.301 294.625,302.422 294.136,301.076 292.571 C 299.094 290.266,295.393 290.739,293.900 293.489 C 291.018 298.798,277.826 311.528,275.147 311.586 C 273.066 311.631,276.502 298.696,280.137 292.800 C 281.775 290.143,282.083 288.728,281.264 287.618 C 278.773 284.238,274.323 286.914,271.700 293.369 C 269.340 299.177,260.384 307.596,257.067 307.123 C 256.307 307.015,256.167 306.665,255.931 304.277 C 255.617 301.098,254.806 299.600,253.400 299.600 C 251.162 299.600,250.226 303.765,251.425 308.389 C 253.099 314.842,246.191 332.400,241.978 332.400 C 239.133 332.400,239.988 325.963,244.891 310.468 L 246.958 303.935 250.224 300.207 C 267.932 279.993,275.797 264.989,272.642 257.439 C 271.701 255.186,268.899 254.133,266.400 255.094 M107.847 255.645 C 103.855 256.582,97.294 261.577,96.642 264.175 C 96.491 264.775,95.894 266.017,95.315 266.933 C 93.231 270.233,92.714 273.569,93.848 276.404 C 94.902 279.037,97.325 279.565,97.839 277.273 C 98.608 273.852,99.040 272.674,100.672 269.564 C 103.577 264.026,108.198 259.487,110.164 260.241 C 111.507 260.757,110.257 267.410,107.730 273.200 C 107.393 273.970,106.975 274.960,106.801 275.400 C 106.626 275.840,105.993 277.280,105.394 278.600 C 104.795 279.920,102.724 284.870,100.793 289.600 C 98.862 294.330,96.883 299.100,96.396 300.200 C 90.875 312.672,90.635 320.160,95.758 320.160 C 97.832 320.160,98.499 319.277,100.411 314.000 C 104.753 302.018,122.826 274.856,130.091 269.395 C 132.487 267.594,133.882 267.088,133.467 268.170 C 132.072 271.804,130.324 275.453,127.989 279.600 C 116.412 300.168,113.679 312.182,119.985 314.794 C 121.493 315.418,122.204 314.935,123.251 312.574 C 124.271 310.273,132.667 296.402,133.767 295.200 C 134.271 294.650,136.187 292.130,138.026 289.600 C 148.525 275.155,154.359 272.834,147.542 285.814 C 145.541 289.624,141.004 300.058,138.591 306.400 C 131.616 324.734,140.285 340.873,152.568 332.422 C 156.953 329.405,156.892 325.961,152.487 327.831 C 149.104 329.267,144.005 329.209,142.900 327.721 C 141.525 325.869,142.949 319.609,147.021 309.600 C 148.498 305.970,150.379 301.290,151.201 299.200 C 152.023 297.110,153.617 293.510,154.743 291.200 C 159.053 282.357,158.971 276.048,154.506 273.014 C 149.872 269.865,140.875 276.619,133.095 289.085 C 130.884 292.629,127.600 297.412,127.600 297.089 C 127.600 296.069,134.175 281.955,137.386 276.083 C 141.441 268.668,137.990 260.447,131.809 262.797 C 128.804 263.939,119.214 274.727,113.400 283.505 C 110.737 287.525,110.770 287.201,113.998 277.634 C 117.311 267.813,117.753 265.009,116.593 261.176 C 115.166 256.465,112.239 254.614,107.847 255.645 M113.448 257.009 C 115.343 258.455,116.800 261.946,116.800 265.040 C 116.800 267.514,115.911 270.569,111.400 283.591 C 109.470 289.164,110.184 289.179,113.975 283.643 C 120.662 273.878,128.482 264.989,131.739 263.452 C 137.192 260.878,140.904 268.947,137.236 275.400 C 135.424 278.588,132.036 285.262,130.839 288.001 C 128.501 293.354,127.210 296.461,126.659 298.070 C 126.332 299.021,125.941 300.115,125.790 300.500 C 125.628 300.911,125.697 301.200,125.957 301.200 C 126.201 301.200,126.400 300.930,126.400 300.600 C 126.400 300.270,126.580 300.000,126.800 300.000 C 127.020 300.000,127.200 299.815,127.200 299.588 C 127.200 299.362,128.398 297.337,129.861 295.088 C 131.325 292.840,133.153 290.016,133.924 288.813 C 144.186 272.785,154.788 268.001,157.193 278.313 C 157.965 281.623,157.206 284.778,153.996 291.600 C 152.495 294.790,150.681 298.930,149.965 300.800 C 149.249 302.670,148.154 305.330,147.532 306.710 C 146.909 308.091,146.400 309.456,146.400 309.743 C 146.400 310.031,146.281 310.386,146.135 310.532 C 145.575 311.092,143.079 318.529,142.126 322.477 C 140.659 328.557,144.565 331.268,151.285 328.834 C 154.981 327.496,155.200 327.465,155.200 328.282 C 155.200 330.499,149.441 334.400,146.169 334.400 C 139.549 334.400,134.424 323.354,137.074 314.800 C 137.313 314.030,137.720 312.320,137.978 311.000 C 138.578 307.938,139.091 306.291,140.221 303.800 C 140.720 302.700,142.059 299.460,143.196 296.600 C 144.332 293.740,146.343 289.330,147.663 286.800 C 154.915 272.905,149.443 273.210,139.146 287.275 C 137.526 289.488,135.196 292.582,133.968 294.150 C 132.056 296.591,127.200 304.117,127.200 304.638 C 127.200 304.734,126.583 305.755,125.829 306.906 C 125.076 308.058,123.861 310.170,123.129 311.600 C 121.521 314.746,120.574 315.099,118.810 313.210 C 115.172 309.316,118.633 296.543,127.215 282.200 C 127.873 281.100,129.414 278.130,130.639 275.600 C 131.864 273.070,133.009 270.724,133.182 270.387 C 135.514 265.862,132.928 266.007,127.976 270.678 C 123.894 274.529,121.211 277.961,115.060 287.200 C 104.676 302.797,102.185 307.169,100.022 313.600 C 98.327 318.641,97.646 319.600,95.767 319.600 C 92.672 319.600,91.615 315.505,93.289 310.000 C 93.853 308.146,97.651 298.311,98.000 297.800 C 98.151 297.580,99.410 294.520,100.799 291.000 C 102.187 287.480,103.611 284.266,103.962 283.858 C 104.313 283.450,104.555 283.045,104.500 282.958 C 104.231 282.532,104.448 281.983,104.800 282.200 C 105.028 282.341,105.200 281.996,105.200 281.400 C 105.200 280.804,105.372 280.459,105.600 280.600 C 105.827 280.740,106.000 280.404,106.000 279.824 C 106.000 279.261,106.172 278.800,106.381 278.800 C 106.717 278.800,107.320 277.669,108.407 275.000 C 108.587 274.560,108.945 273.038,109.203 271.618 C 109.461 270.198,109.998 268.128,110.397 267.018 C 112.463 261.261,111.426 258.506,107.834 260.211 C 104.048 262.007,97.600 272.186,97.600 276.366 C 97.600 279.476,94.808 278.569,93.999 275.197 C 93.450 272.906,93.886 270.561,95.339 268.000 C 95.776 267.230,96.621 265.609,97.216 264.397 C 100.265 258.198,109.497 253.996,113.448 257.009 M267.356 260.300 C 265.162 262.490,257.020 277.518,254.408 284.200 C 253.891 285.520,253.348 286.780,253.199 287.000 C 252.549 287.963,250.321 294.054,250.539 294.272 C 250.981 294.714,252.022 293.498,251.800 292.800 C 250.942 290.097,266.302 260.400,268.558 260.400 C 271.957 260.400,263.048 278.882,254.763 289.017 C 253.210 290.917,252.043 292.576,252.169 292.703 C 252.296 292.830,252.455 292.858,252.523 292.767 C 252.591 292.675,253.780 291.171,255.165 289.424 C 265.264 276.691,272.732 259.600,268.196 259.600 C 268.120 259.600,267.742 259.915,267.356 260.300 M222.631 264.519 C 219.589 267.724,215.421 277.227,211.245 290.484 C 209.859 294.885,210.372 294.773,213.690 289.951 C 215.070 287.945,216.973 285.200,217.919 283.851 C 223.506 275.881,226.400 269.867,226.400 266.227 C 226.400 262.326,225.220 261.792,222.631 264.519 M226.000 265.999 C 226.000 269.312,224.261 273.170,219.419 280.600 C 216.177 285.574,211.600 291.848,211.600 291.318 C 211.600 290.679,215.067 280.672,216.769 276.400 C 221.082 265.574,226.000 260.032,226.000 265.999 M234.840 272.030 C 234.250 273.000,234.177 273.486,234.495 274.330 C 234.954 275.550,233.495 279.574,231.761 281.873 C 230.466 283.589,230.730 285.981,232.280 286.575 C 233.661 287.105,238.108 283.464,238.230 281.704 C 238.332 280.235,239.260 278.482,240.586 277.254 C 242.070 275.881,242.239 274.682,241.190 272.983 C 239.615 270.435,236.129 269.912,234.840 272.030 M239.432 271.954 C 241.705 273.341,241.857 277.600,239.633 277.600 C 238.951 277.600,236.771 281.683,237.185 282.182 C 237.664 282.759,237.334 283.226,236.636 282.958 C 236.369 282.856,235.898 283.244,235.589 283.820 C 235.281 284.396,234.504 285.241,233.864 285.697 L 232.699 286.526 231.958 285.563 C 230.954 284.257,231.014 283.114,232.143 282.053 C 233.515 280.764,235.352 275.859,235.042 274.310 C 234.501 271.605,236.819 270.361,239.432 271.954 M174.247 286.853 C 172.200 289.245,168.262 297.595,168.886 298.219 C 169.657 298.990,176.343 292.907,177.179 290.674 C 178.791 286.365,176.841 283.823,174.247 286.853 M176.967 288.791 C 176.595 291.439,174.233 294.649,171.340 296.437 C 169.400 297.636,169.349 297.300,170.918 293.679 C 174.173 286.168,177.741 283.285,176.967 288.791 M195.826 293.738 C 193.821 295.743,189.709 305.333,188.768 310.200 C 187.823 315.089,190.003 315.789,194.065 311.900 C 194.359 311.619,195.746 310.401,197.147 309.194 C 199.913 306.812,200.207 306.299,201.043 302.400 C 202.411 296.016,199.080 290.484,195.826 293.738 M198.181 293.448 C 198.537 293.585,199.387 294.509,200.070 295.502 L 201.313 297.308 200.807 300.754 C 200.180 305.021,199.877 305.606,196.730 308.633 C 190.442 314.679,189.200 315.226,189.200 311.951 C 189.200 308.133,193.751 296.648,196.273 294.100 C 197.261 293.101,197.270 293.098,198.181 293.448 M143.200 298.605 C 143.200 299.158,143.020 299.968,142.800 300.405 C 142.580 300.842,142.220 301.558,142.000 301.995 C 141.780 302.432,141.600 302.972,141.600 303.195 C 141.600 303.418,141.780 303.600,142.000 303.600 C 142.220 303.600,142.400 303.328,142.400 302.995 C 142.400 302.662,142.580 302.032,142.800 301.595 C 143.020 301.158,143.380 300.442,143.600 300.005 C 143.820 299.568,144.000 298.848,144.000 298.405 C 144.000 297.962,143.820 297.600,143.600 297.600 C 143.380 297.600,143.200 298.052,143.200 298.605 M140.800 304.600 C 140.800 304.930,140.980 305.200,141.200 305.200 C 141.420 305.200,141.600 304.930,141.600 304.600 C 141.600 304.270,141.420 304.000,141.200 304.000 C 140.980 304.000,140.800 304.270,140.800 304.600 M282.137 324.520 C 273.188 333.713,268.810 340.812,269.332 345.285 C 270.390 354.358,277.682 344.893,283.877 326.404 C 284.430 324.752,285.045 323.096,285.243 322.724 C 286.130 321.057,284.707 321.879,282.137 324.520 M239.419 322.500 C 239.252 322.885,239.252 323.515,239.419 323.900 C 239.709 324.567,239.732 324.567,239.891 323.900 C 240.174 322.719,239.803 321.619,239.419 322.500 M282.192 329.461 C 276.860 343.448,272.961 349.559,270.614 347.612 C 267.410 344.952,271.891 336.085,281.744 325.590 C 284.810 322.325,284.834 322.530,282.192 329.461 "
          stroke="none" fill="#9aa1a6" fill-rule="evenodd"></path>
  </g>
</svg>
